<?xml version="1.0" encoding="iso-8859-1"?>
<!-- Generator: Adobe Illustrator 16.0.0, SVG Export Plug-In . SVG Version: 6.00 Build 0)  -->
<!DOCTYPE svg PUBLIC "-//W3C//DTD SVG 1.1//EN" "http://www.w3.org/Graphics/SVG/1.1/DTD/svg11.dtd">
<svg xmlns="http://www.w3.org/2000/svg" xmlns:xlink="http://www.w3.org/1999/xlink" version="1.1" id="Layer_1" x="0px" y="0px" width="512" height="512" viewBox="0 0 470 470" style="enable-background:new 0 0 470 470;" xml:space="preserve">
<g>
	<g>
		<circle style="fill:#D2CFCE;" cx="235" cy="235" r="227.5"/>
		<circle style="fill:#EBEAEA;" cx="235" cy="235" r="202.5"/>
		<path style="fill:#8C8484;" d="M264.791,132.141c-10.459-3.957-21.74-1.694-29.791,4.945c-8.051-6.639-19.332-8.902-29.792-4.945    c-15.532,5.877-23.359,23.233-17.482,38.766l32.834-17.257l14.44,5.517l14.44-5.517l32.834,17.257    C288.151,155.374,280.324,138.018,264.791,132.141z"/>
		<path style="fill:#8C8484;" d="M209.843,231.5h50.314c-5.165-8.483-14.499-14.148-25.157-14.148S215.008,223.017,209.843,231.5z"/>
	</g>
	<path d="M401.17,68.83C356.784,24.444,297.771,0,235,0S113.216,24.444,68.83,68.83C24.444,113.215,0,172.229,0,235   c0,62.771,24.444,121.785,68.83,166.17C113.216,445.556,172.229,470,235,470s121.784-24.444,166.17-68.83   C445.556,356.785,470,297.771,470,235C470,172.229,445.556,113.215,401.17,68.83z M235,455c-121.309,0-220-98.691-220-220   S113.691,15,235,15s220,98.691,220,220S356.309,455,235,455z M266.098,391.342l-26.497,20.582   c-1.354,1.051-2.977,1.577-4.601,1.577s-3.247-0.525-4.601-1.577l-26.497-20.582l-32.36,8.875   c-3.308,0.909-6.814-0.548-8.508-3.534l-16.548-29.188l-33.286-4.192c-3.398-0.428-6.075-3.105-6.504-6.504l-4.192-33.286   l-29.188-16.548c-3.604-2.043-4.868-6.62-2.825-10.224c2.043-3.604,6.621-4.867,10.224-2.825l32.459,18.403   c2.059,1.167,3.446,3.239,3.742,5.587l3.936,31.242l31.241,3.935c2.349,0.296,4.419,1.683,5.587,3.742l15.524,27.382l30.352-8.324   c2.277-0.624,4.717-0.14,6.584,1.31L235,396.503l24.86-19.311c1.865-1.449,4.307-1.934,6.584-1.31l30.351,8.324l15.524-27.381   c1.168-2.059,3.238-3.446,5.587-3.742l31.241-3.935l3.936-31.242c0.296-2.348,1.684-4.419,3.742-5.587l32.46-18.403   c3.603-2.042,8.181-0.778,10.224,2.826c2.043,3.603,0.778,8.18-2.825,10.223l-29.188,16.548l-4.192,33.286   c-0.429,3.399-3.105,6.076-6.504,6.504l-33.286,4.192l-16.548,29.187c-1.694,2.986-5.2,4.439-8.508,3.534L266.098,391.342z    M349.148,120.852l-31.241-3.935c-2.349-0.296-4.419-1.683-5.587-3.742l-15.524-27.382l-30.352,8.324   c-2.276,0.624-4.717,0.139-6.584-1.31L235,73.497l-24.86,19.311c-1.866,1.449-4.308,1.933-6.584,1.31l-30.351-8.324l-15.524,27.381   c-1.168,2.059-3.238,3.446-5.587,3.742l-31.241,3.935l-3.936,31.242c-0.296,2.348-1.684,4.419-3.742,5.587l-32.46,18.403   c-3.604,2.042-8.181,0.778-10.224-2.826c-2.043-3.603-0.778-8.18,2.825-10.223l29.188-16.548l4.192-33.286   c0.429-3.399,3.105-6.076,6.504-6.504l33.286-4.192l16.548-29.187c1.693-2.987,5.199-4.441,8.508-3.534l32.359,8.875l26.497-20.582   c2.707-2.103,6.494-2.103,9.201,0l26.497,20.582l32.36-8.875c3.308-0.909,6.814,0.548,8.508,3.534l16.548,29.188l33.286,4.192   c3.398,0.428,6.075,3.105,6.504,6.504l4.192,33.286l29.188,16.548c3.604,2.043,4.868,6.62,2.825,10.224   c-1.381,2.435-3.919,3.802-6.531,3.802c-1.254,0-2.524-0.315-3.692-0.977l-32.459-18.403c-2.059-1.167-3.446-3.239-3.742-5.587   L349.148,120.852z M222.626,309.138l-14.377,14.377l8.734,8.734c2.929,2.929,2.929,7.678,0,10.607   c-1.465,1.464-3.385,2.196-5.304,2.196c-1.92,0-3.839-0.732-5.304-2.196l-9.243-9.243c-6.381,4.309-13.894,6.628-21.764,6.628   c-10.418,0-20.212-4.057-27.578-11.423c-1.406-1.406-2.196-3.314-2.196-5.303v-3.744c0-4.142,3.357-7.5,7.5-7.5s7.5,3.358,7.5,7.5   v0.389c4.202,3.295,9.351,5.082,14.774,5.082c3.822,0,7.506-0.894,10.82-2.572l-7.888-7.888c-2.929-2.929-2.929-7.678,0-10.606   c2.93-2.929,7.678-2.929,10.607,0l8.733,8.733l14.376-14.376c2.93-2.929,7.678-2.929,10.607,0   C225.555,301.46,225.555,306.209,222.626,309.138z M253.017,332.249l8.734-8.734l-41.693-41.693   c-18.511-18.511-41.989-30.014-67.897-33.266c-4.109-0.516-7.022-4.266-6.507-8.375c0.516-4.111,4.282-7.027,8.375-6.507   c29.246,3.671,55.746,16.653,76.637,37.542L235,275.55l4.335-4.335c20.891-20.89,47.391-33.872,76.636-37.542   c4.109-0.522,7.86,2.397,8.376,6.507c0.516,4.11-2.397,7.86-6.507,8.375c-25.908,3.252-49.387,14.755-67.897,33.266l-4.335,4.335   l26.75,26.75l8.733-8.733c2.93-2.929,7.678-2.929,10.607,0c2.929,2.929,2.929,7.678,0,10.606l-7.888,7.888   c3.314,1.678,6.998,2.572,10.82,2.572c5.424,0,10.572-1.786,14.774-5.082v-0.389c0-4.142,3.357-7.5,7.5-7.5s7.5,3.358,7.5,7.5   v3.744c0,1.989-0.79,3.897-2.196,5.303c-7.366,7.366-17.16,11.423-27.578,11.423c-7.87,0-15.383-2.319-21.764-6.628l-9.243,9.243   c-1.465,1.464-3.385,2.196-5.304,2.196s-3.839-0.732-5.304-2.196C250.088,339.926,250.088,335.177,253.017,332.249z M235,112.948   c-4.143,0-7.5,3.358-7.5,7.5v4.122c-8.023-2.613-16.836-2.513-24.946,0.556c-19.375,7.332-29.174,29.059-21.843,48.435   c0.76,2.009,2.346,3.596,4.354,4.358c2.008,0.762,4.247,0.627,6.149-0.374l20.009-10.517l-5.053,7.242   c-2.37,3.396-1.538,8.072,1.858,10.442c3.398,2.37,8.072,1.537,10.442-1.859l9.028-12.939v45.584   c-4.396,0.886-8.614,2.539-12.452,4.923c-3.519,2.186-4.6,6.81-2.414,10.328c1.421,2.287,3.87,3.544,6.378,3.544   c1.351,0,2.719-0.365,3.95-1.13c3.604-2.239,7.768-3.422,12.038-3.422c4.27,0,8.432,1.183,12.036,3.422   c3.52,2.183,8.144,1.104,10.328-2.415c2.186-3.518,1.104-8.142-2.414-10.328c-3.838-2.383-8.055-4.035-12.45-4.921v-45.584   l9.028,12.939c1.458,2.09,3.788,3.209,6.157,3.209c1.481,0,2.978-0.438,4.285-1.35c3.396-2.371,4.229-7.046,1.858-10.442   l-5.053-7.242l20.009,10.517c1.088,0.572,2.287,0.861,3.489,0.861c0.899,0,1.801-0.162,2.66-0.488   c2.009-0.762,3.595-2.349,4.354-4.358c7.331-19.375-2.468-41.103-21.844-48.435c-8.11-3.068-16.923-3.168-24.945-0.556v-4.122   C242.5,116.306,239.143,112.948,235,112.948z M207.861,139.155c2.577-0.975,5.272-1.451,7.954-1.451   c4.087,0,8.135,1.119,11.685,3.255v0.57l-34.208,17.979C193.601,150.685,199.102,142.47,207.861,139.155z M262.137,139.155   c8.761,3.315,14.263,11.529,14.571,20.353L242.5,141.529v-0.575C248.378,137.418,255.633,136.695,262.137,139.155z M445,235   c0,50.331-18.084,99.016-50.919,137.086c-2.707,3.137-7.442,3.485-10.578,0.781c-3.137-2.705-3.486-7.441-0.781-10.578   C413.21,326.941,430,281.735,430,235c0-107.523-87.477-195-195-195S40,127.477,40,235c0,101.633,79.306,187.053,180.548,194.466   c4.131,0.303,7.234,3.896,6.933,8.028c-0.289,3.944-3.58,6.952-7.473,6.953c-0.185,0-0.369-0.007-0.556-0.021   c-52.766-3.864-101.774-27.363-137.997-66.167C45.05,339.258,25,288.381,25,235c0-115.794,94.206-210,210-210S445,119.206,445,235z    M372.868,383.503c2.705,3.137,2.355,7.873-0.781,10.578c-34.354,29.63-76.383,47.039-121.539,50.345   c-0.187,0.014-0.372,0.021-0.556,0.021c-3.894,0-7.184-3.007-7.473-6.953c-0.302-4.131,2.802-7.726,6.933-8.028   c41.921-3.069,80.939-19.233,112.838-46.745C365.426,380.018,370.162,380.366,372.868,383.503z"/>
</g>















</svg>
