<?xml version="1.0" standalone="yes"?>
<svg width="303" height="121">
<path style="fill:#ffffff; stroke:none;" d="M0 0L0 121L5 121C-0.962425 112.673 1 101.826 1 92L1 29C1 19.6583 -1.52652 7.81741 6 1C3.94789 0.125748 2.25283 0.0472183 0 0z"/>
<path style="fill:#7d7d7d; stroke:none;" d="M6 0L7 1L6 0z"/>
<path style="fill:#cccccc; stroke:none;" d="M7.01543 0.742287C-1.53492 4.11441 1 16.7352 1 24L1 94C1 100.754 -1.90064 116.027 5.1088 119.972C9.88008 122.658 18.6706 121 24 121L68 121L231 121L279 121C284.565 121 293.917 122.772 298.891 119.972C305.901 116.027 303 100.754 303 94L303 24C303 16.7351 305.535 4.11442 296.985 0.742287C290.594 -1.77798 280.799 0 274 0L223 0L71 0L27 0C21.0156 0 12.6537 -1.48138 7.01543 0.742287z"/>
<path style="fill:#7d7d7d; stroke:none;" d="M297 0L298 1L297 0z"/>
<path style="fill:#ffffff; stroke:none;" d="M298 0L302 5C302.779 3.23101 302.912 1.96401 303 0L298 0z"/>
<path style="fill:#7d7d7d; stroke:none;" d="M3 2L4 3L3 2z"/>
<path style="fill:#e5e5e5; stroke:none;" d="M7.05864 3.02778C0.167876 6.80173 3 21.4007 3 28L3 96C3 102.329 0.49345 115.248 7.1088 118.972C12.0828 121.772 21.4351 120 27 120L75 120L235 120L278 120C283.454 120 291.989 121.58 296.891 118.821C303.509 115.096 301 102.35 301 96L301 28C301 21.379 303.832 6.95307 296.941 3.17901C291.957 0.448959 283.517 2 278 2L235 2L75 2L27 2C21.3679 2 12.121 0.255234 7.05864 3.02778z"/>
<path style="fill:#7d7d7d; stroke:none;" d="M300 2L301 3L300 2M1 5L2 6L1 5M302 5L303 6L302 5z"/>
<path style="fill:#525051; stroke:none;" d="M38 40L37 42C38.2627 41.0287 38.3919 41.3063 38 40z"/>
<path style="fill:#221f20; stroke:none;" d="M39.3765 41.0231C34.2893 44.7199 44.0541 45.9858 46 45.9992C60.3318 46.0979 74.6678 46 89 46C92.4877 46 100.767 47.4832 103.248 44.4159C104.491 42.8799 103.352 41.289 101.833 40.6026C98.791 39.229 94.257 40 91 40L54 40C50.0963 40 42.6979 38.6096 39.3765 41.0231z"/>
<path style="fill:#525051; stroke:none;" d="M103 40L104 41L103 40M104 41L105 42L104 41M37 44L38 45L37 44M104 44L105 45L104 44M38 45L39 46L38 45M103 45L104 46L103 45z"/>
<path style="fill:#b6b6b6; stroke:none;" d="M156 45C157.248 45.6848 157.548 45.7488 159 46C157.752 45.3152 157.452 45.2512 156 45M178.667 45.3333C178.222 45.7777 179.278 45.7222 179.333 45.6667C179.778 45.2222 178.722 45.2778 178.667 45.3333z"/>
<path style="fill:#929292; stroke:none;" d="M155 46L156 47L155 46z"/>
<path style="fill:#333333; stroke:none;" d="M156 74L158 74C159.778 67.9857 159 61.2427 159 55C161.068 57.6902 164.766 65.6601 168.856 65.0787C172.68 64.5351 175.384 57.5343 178 55L178 74C179.572 73.4782 180.668 73.3515 181.421 71.6821C183.59 66.8783 182.094 58.2104 181.995 53.0008C181.963 51.2624 182.229 48.2106 180.411 47.1759C177.329 45.4218 174.29 51.0756 173.055 52.9992C171.593 55.2754 170.27 57.6145 169 60C166.358 56.9006 162.245 47.5823 158.044 46.9213C154.886 46.4245 155.041 51.0569 155.005 53.0008C154.876 59.7775 154.073 67.4798 156 74z"/>
<path style="fill:#9e9e9e; stroke:none;" d="M159 46L160 47L159 46z"/>
<path style="fill:#7a7a7a; stroke:none;" d="M177 46L178 47L177 46z"/>
<path style="fill:#aaaaaa; stroke:none;" d="M181 46L182 47L181 46z"/>
<path style="fill:#b6b6b6; stroke:none;" d="M154 47L154 73C156.477 67.097 156.477 52.903 154 47z"/>
<path style="fill:#aaaaaa; stroke:none;" d="M176 47L177 48L176 47z"/>
<path style="fill:#929292; stroke:none;" d="M161 49L162 50L161 49z"/>
<path style="fill:#7a7a7a; stroke:none;" d="M175 49L176 50L175 49z"/>
<path style="fill:#b6b6b6; stroke:none;" d="M174 50L175 51L174 50z"/>
<path style="fill:#626262; stroke:none;" d="M162 51L163 52L162 51z"/>
<path style="fill:#9e9e9e; stroke:none;" d="M163 52L164 53L163 52z"/>
<path style="fill:#929292; stroke:none;" d="M173 52L174 53L173 52M196 52C197.769 52.7789 199.036 52.9124 201 53C199.231 52.2211 197.964 52.0876 196 52z"/>
<path style="fill:#b6b6b6; stroke:none;" d="M215 52L216 53L215 52z"/>
<path style="fill:#929292; stroke:none;" d="M222 52C223.769 52.779 225.036 52.9124 227 53C225.231 52.2211 223.964 52.0876 222 52z"/>
<path style="fill:#c1c1c1; stroke:none;" d="M239.667 52.3333C239.222 52.7777 240.278 52.7223 240.333 52.6667C240.778 52.2222 239.722 52.2778 239.667 52.3333z"/>
<path style="fill:#b6b6b6; stroke:none;" d="M254 52L255 53L254 52z"/>
<path style="fill:#aaaaaa; stroke:none;" d="M193 53L194 54L193 53z"/>
<path style="fill:#333333; stroke:none;" d="M207 69C200.794 69.6137 196.312 71.7092 193 65L200.002 64.9992C201.791 64.9868 204.021 65.2257 205.678 64.3966C208.911 62.7792 207.281 58.3314 205.486 56.2284C201.226 51.2384 192.715 52.3547 189.769 58.0941C188.849 59.8878 188.389 61.9874 188.478 64C188.912 73.8205 202.296 77.9643 207 69z"/>
<path style="fill:#7a7a7a; stroke:none;" d="M202 53L203 54L202 53z"/>
<path style="fill:#aaaaaa; stroke:none;" d="M213 53L214 54L213 53z"/>
<path style="fill:#333333; stroke:none;" d="M217 74C217 69.9723 216.165 64.7164 218.179 61.0594C219.636 58.4149 222.801 56.5513 225.486 58.7616C229.32 61.9179 228 69.6313 228 74C234.06 71.9886 233.746 57.6036 228.581 54.179C224.779 51.6579 220.413 54.1225 217 56C216.664 54.4405 215.531 51.8795 213.722 54.3333C212.479 56.0206 213 59.0421 213 61C213 65.7565 211.187 72.8953 217 74z"/>
<path style="fill:#929292; stroke:none;" d="M220 53L221 54L220 53M228 53L229 54L228 53M238 53L239 54L238 53z"/>
<path style="fill:#333333; stroke:none;" d="M239 53C236.828 60.3483 236.01 76.4731 247.955 73.4383C249.573 73.0273 250.686 71.9451 252 71C253.226 73.0347 253.703 73.3265 256 74L256 53C249.014 55.3186 254.39 63.0445 250.397 67.6775C245.515 73.341 242.158 65.0166 242.015 61C241.913 58.1505 241.809 55.7363 241 53L239 53z"/>
<path style="fill:#626262; stroke:none;" d="M241 53L242 54L241 53z"/>
<path style="fill:#aaaaaa; stroke:none;" d="M252 53L253 54L252 53z"/>
<path style="fill:#6e6e6e; stroke:none;" d="M164 54L165 55L164 54z"/>
<path style="fill:#626262; stroke:none;" d="M192 54L193 55L192 54z"/>
<path style="fill:#9e9e9e; stroke:none;" d="M204 54L205 55L204 54z"/>
<path style="fill:#626262; stroke:none;" d="M217 54L217 56L219 56C218.455 54.3648 218.635 54.5451 217 54M219 54L220 55L219 54z"/>
<path style="fill:#b6b6b6; stroke:none;" d="M237 54L237 68C238.667 64.0279 238.667 57.9721 237 54z"/>
<path style="fill:#929292; stroke:none;" d="M242 54L242 67C243.591 63.2087 243.591 57.7913 242 54z"/>
<path style="fill:#626262; stroke:none;" d="M256 54L256 73C258.02 68.1871 258.02 58.8129 256 54z"/>
<path style="fill:#929292; stroke:none;" d="M159 55L159 73C160.825 68.651 161.35 59.0642 159 55z"/>
<path style="fill:#b6b6b6; stroke:none;" d="M165 55L166 56L165 55z"/>
<path style="fill:#929292; stroke:none;" d="M171 55L172 56L171 55z"/>
<path style="fill:#626262; stroke:none;" d="M176 55C177.405 60.9007 177 66.9679 177 73C178.761 68.8023 179.609 58.1539 176 55z"/>
<path style="fill:#9e9e9e; stroke:none;" d="M205 55L206 56L205 55z"/>
<path style="fill:#868686; stroke:none;" d="M230 55L231 56L230 55z"/>
<path style="fill:#b6b6b6; stroke:none;" d="M176 56L177 57L176 56z"/>
<path style="fill:#626262; stroke:none;" d="M190 56L191 57L190 56z"/>
<path style="fill:#929292; stroke:none;" d="M197 56C198.248 56.6848 198.548 56.7488 200 57C198.752 56.3152 198.452 56.2512 197 56z"/>
<path style="fill:#b6b6b6; stroke:none;" d="M206 56L207 57L206 56z"/>
<path style="fill:#868686; stroke:none;" d="M166 57L167 58L166 57z"/>
<path style="fill:#626262; stroke:none;" d="M170 57L171 58L170 57z"/>
<path style="fill:#868686; stroke:none;" d="M175 57L176 58L175 57z"/>
<path style="fill:#929292; stroke:none;" d="M189 57L190 58L189 57z"/>
<path style="fill:#b6b6b6; stroke:none;" d="M195 57L196 58L195 57z"/>
<path style="fill:#e5e5e5; stroke:none;" d="M193 62L203 62C201.143 55.8837 195.174 56.3185 193 62z"/>
<path style="fill:#7a7a7a; stroke:none;" d="M201 57L202 58L201 57z"/>
<path style="fill:#9e9e9e; stroke:none;" d="M220 57L221 58L220 57z"/>
<path style="fill:#aaaaaa; stroke:none;" d="M224 57L225 58L224 57z"/>
<path style="fill:#626262; stroke:none;" d="M231.333 57.6667C231.278 57.7222 231.222 58.7778 231.667 58.3333C231.722 58.2777 231.778 57.2222 231.333 57.6667z"/>
<path style="fill:#525051; stroke:none;" d="M38 58L37 60C38.2627 59.0287 38.3919 59.3063 38 58z"/>
<path style="fill:#221f20; stroke:none;" d="M39.3765 59.0231C34.2893 62.7199 44.0541 63.9858 46 63.9992C60.3318 64.0979 74.6678 64 89 64C92.4877 64 100.767 65.4832 103.248 62.4159C104.491 60.8799 103.352 59.289 101.833 58.6026C98.791 57.229 94.257 58 91 58L54 58C50.0963 58 42.6979 56.6096 39.3765 59.0231z"/>
<path style="fill:#525051; stroke:none;" d="M103 58L104 59L103 58z"/>
<path style="fill:#aaaaaa; stroke:none;" d="M169 58L170 59L169 58z"/>
<path style="fill:#626262; stroke:none;" d="M202 58L203 59L202 58z"/>
<path style="fill:#9e9e9e; stroke:none;" d="M207 58L208 59L207 58z"/>
<path style="fill:#626262; stroke:none;" d="M226 58L227 59L226 58z"/>
<path style="fill:#525051; stroke:none;" d="M104 59L105 60L104 59z"/>
<path style="fill:#929292; stroke:none;" d="M162 59L163 60L162 59z"/>
<path style="fill:#b6b6b6; stroke:none;" d="M174 59L175 60L174 59z"/>
<path style="fill:#7a7a7a; stroke:none;" d="M188 59L188 62C188.696 60.4463 188.696 60.5537 188 59z"/>
<path style="fill:#929292; stroke:none;" d="M193 59L194 60L193 59z"/>
<path style="fill:#6e6e6e; stroke:none;" d="M207 59L208 60L207 59z"/>
<path style="fill:#aaaaaa; stroke:none;" d="M218 59L219 60L218 59z"/>
<path style="fill:#868686; stroke:none;" d="M173 60L174 61L173 60M203 61L204 62L203 61z"/>
<path style="fill:#b6b6b6; stroke:none;" d="M208 61L208 64C208.696 62.4463 208.696 62.5537 208 61z"/>
<path style="fill:#626262; stroke:none;" d="M217 61L217 73C218.512 69.3957 218.512 64.6043 217 61M227 61L227 73C228.512 69.3957 228.512 64.6043 227 61z"/>
<path style="fill:#525051; stroke:none;" d="M37 62L38 63L37 62M104 62L105 63L104 62z"/>
<path style="fill:#929292; stroke:none;" d="M164 62L165 63L164 62z"/>
<path style="fill:#b6b6b6; stroke:none;" d="M172 62L173 63L172 62z"/>
<path style="fill:#525051; stroke:none;" d="M38 63L39 64L38 63M103 63L104 64L103 63z"/>
<path style="fill:#868686; stroke:none;" d="M171 63L172 64L171 63z"/>
<path style="fill:#9e9e9e; stroke:none;" d="M207 64L208 65L207 64z"/>
<path style="fill:#929292; stroke:none;" d="M166 65L167 66L166 65z"/>
<path style="fill:#7a7a7a; stroke:none;" d="M188.333 65.6667C188.278 65.7222 188.222 66.7778 188.667 66.3333C188.722 66.2777 188.778 65.2222 188.333 65.6667z"/>
<path style="fill:#929292; stroke:none;" d="M167.667 66.3333C167.222 66.7778 168.278 66.7222 168.333 66.6667C168.778 66.2223 167.722 66.2778 167.667 66.3333z"/>
<path style="fill:#aaaaaa; stroke:none;" d="M188 67L189 68L188 67z"/>
<path style="fill:#7a7a7a; stroke:none;" d="M193 67L194 68L193 67z"/>
<path style="fill:#929292; stroke:none;" d="M251 67L252 68L251 67z"/>
<path style="fill:#aaaaaa; stroke:none;" d="M194 68L195 69L194 68z"/>
<path style="fill:#6e6e6e; stroke:none;" d="M204.667 68.3333C204.222 68.7778 205.278 68.7222 205.333 68.6667C205.778 68.2223 204.722 68.2778 204.667 68.3333z"/>
<path style="fill:#929292; stroke:none;" d="M243 68L244 69L243 68z"/>
<path style="fill:#9e9e9e; stroke:none;" d="M189 69L190 70L189 69z"/>
<path style="fill:#929292; stroke:none;" d="M195 69L196 70L195 69M202 69L203 70L202 69z"/>
<path style="fill:#7a7a7a; stroke:none;" d="M244 69L245 70L244 69z"/>
<path style="fill:#929292; stroke:none;" d="M249 69L250 70L249 69z"/>
<path style="fill:#626262; stroke:none;" d="M190 70L191 71L190 70z"/>
<path style="fill:#929292; stroke:none;" d="M197 70C198.506 70.683 199.315 70.8259 201 71C199.494 70.317 198.685 70.1741 197 70z"/>
<path style="fill:#9e9e9e; stroke:none;" d="M238 70L239 71L238 70M206 71L207 72L206 71z"/>
<path style="fill:#929292; stroke:none;" d="M251 71L252 72L251 71z"/>
<path style="fill:#868686; stroke:none;" d="M192 72L193 73L192 72z"/>
<path style="fill:#aaaaaa; stroke:none;" d="M205 72L206 73L205 72z"/>
<path style="fill:#868686; stroke:none;" d="M250 72L251 73L250 72M155 73L156 74L155 73z"/>
<path style="fill:#626262; stroke:none;" d="M158 73L159 74L158 73z"/>
<path style="fill:#aaaaaa; stroke:none;" d="M181 73L182 74L181 73z"/>
<path style="fill:#b6b6b6; stroke:none;" d="M193 73L194 74L193 73z"/>
<path style="fill:#6e6e6e; stroke:none;" d="M194 73L195 74L194 73z"/>
<path style="fill:#929292; stroke:none;" d="M203 73L204 74L203 73z"/>
<path style="fill:#aaaaaa; stroke:none;" d="M213 73L214 74L213 73M231 73L232 74L231 73z"/>
<path style="fill:#7a7a7a; stroke:none;" d="M241 73L242 74L241 73z"/>
<path style="fill:#aaaaaa; stroke:none;" d="M249 73L250 74L249 73M252 73L253 74L252 73z"/>
<path style="fill:#c1c1c1; stroke:none;" d="M156.667 74.3333C156.222 74.7778 157.278 74.7222 157.333 74.6667C157.778 74.2222 156.722 74.2778 156.667 74.3333z"/>
<path style="fill:#929292; stroke:none;" d="M196 74C197.769 74.7789 199.036 74.9124 201 75C199.231 74.2211 197.964 74.0876 196 74z"/>
<path style="fill:#b6b6b6; stroke:none;" d="M215 74L216 75L215 74z"/>
<path style="fill:#929292; stroke:none;" d="M243 74C244.506 74.683 245.315 74.8259 247 75C245.494 74.3169 244.685 74.1741 243 74z"/>
<path style="fill:#b6b6b6; stroke:none;" d="M254 74L255 75L254 74z"/>
<path style="fill:#525051; stroke:none;" d="M38 76L37 78C38.2627 77.0287 38.3919 77.3063 38 76z"/>
<path style="fill:#221f20; stroke:none;" d="M39.3765 77.0231C34.2893 80.7199 44.0541 81.9858 46 81.9992C60.3318 82.0979 74.6678 82 89 82C92.4877 82 100.767 83.4832 103.248 80.4159C104.491 78.8799 103.352 77.289 101.833 76.6026C98.791 75.229 94.257 76 91 76L54 76C50.0963 76 42.6979 74.6096 39.3765 77.0231z"/>
<path style="fill:#525051; stroke:none;" d="M103 76L104 77L103 76M104 77L105 78L104 77M37 80L38 81L37 80M104 80L105 81L104 80M38 81L39 82L38 81M103 81L104 82L103 81z"/>
<path style="fill:#7d7d7d; stroke:none;" d="M1 116L2 117L1 116M302 116L303 117L302 116z"/>
<path style="fill:#ffffff; stroke:none;" d="M302 117L299 120C300.506 120.683 301.315 120.826 303 121C302.826 119.315 302.683 118.506 302 117z"/>
<path style="fill:#7d7d7d; stroke:none;" d="M3 119L4 120L3 119M300 119L301 120L300 119z"/>
</svg>
